<svg preserveAspectRatio="none" width="100%" height="100%" overflow="visible"
    style="display: block;" viewBox="0 0 12 18" fill="none" xmlns="http://www.w3.org/2000/svg">
    <path id="vector" fill-rule="evenodd" clip-rule="evenodd"
        d="M9 3C9 4.30622 8.16519 5.41746 7 5.82929V13.874C8.72523 13.4299 10 11.8638 10 10H12C12 12.973 9.83771 15.441 7 15.917V17C7 17.5523 6.55228 18 6 18C5.44772 18 5 17.5523 5 17V15.917C2.16229 15.441 0 12.973 0 10H2C2 11.8638 3.27477 13.4299 5 13.874V5.82929C3.83481 5.41746 3 4.30622 3 3C3 1.34315 4.34315 0 6 0C7.65685 0 9 1.34315 9 3ZM6 4C6.55228 4 7 3.55228 7 3C7 2.44772 6.55228 2 6 2C5.44772 2 5 2.44772 5 3C5 3.55228 5.44772 4 6 4Z"
        fill="currentColor" />
</svg>