<svg preserveAspectRatio="none" width="100%" height="100%" overflow="visible"
    style="display: block;" viewBox="0 0 22 22" fill="none" xmlns="http://www.w3.org/2000/svg">
    <path
        d="M13.8543 10.9741L15.2686 9.55988L11.0259 5.31724L6.78327 9.55988L8.19749 10.9741L10.0259 9.14566V16.6828H12.0259V9.14567L13.8543 10.9741Z"
        fill="currentColor" />
    <path fill-rule="evenodd" clip-rule="evenodd"
        d="M0 18C0 20.2091 1.79086 22 4 22H18C20.2091 22 22 20.2091 22 18V4C22 1.79086 20.2091 0 18 0H4C1.79086 0 0 1.79086 0 4V18ZM4 20H18C19.1046 20 20 19.1046 20 18V4C20 2.89543 19.1046 2 18 2H4C2.89543 2 2 2.89543 2 4V18C2 19.1046 2.89543 20 4 20Z"
        fill="currentColor" />
</svg>