<svg preserveAspectRatio="none" width="100%" height="100%" overflow="visible"
    style="display: block;" viewBox="0 0 22 22" fill="none" xmlns="http://www.w3.org/2000/svg">
    <path
        d="M13.8285 10.9481L15.2427 9.53386L11 5.29122L6.7574 9.53386L8.17161 10.9481L10 9.11965V16.6568H12V9.11965L13.8285 10.9481Z"
        fill="currentColor" />
    <path fill-rule="evenodd" clip-rule="evenodd"
        d="M18.7782 3.22183C14.4824 -1.07394 7.51759 -1.07394 3.22183 3.22183C-1.07394 7.51759 -1.07394 14.4824 3.22183 18.7782C7.51759 23.0739 14.4824 23.0739 18.7782 18.7782C23.0739 14.4824 23.0739 7.51759 18.7782 3.22183ZM17.364 4.63604C13.8492 1.12132 8.15076 1.12132 4.63604 4.63604C1.12132 8.15076 1.12132 13.8492 4.63604 17.364C8.15076 20.8787 13.8492 20.8787 17.364 17.364C20.8787 13.8492 20.8787 8.15076 17.364 4.63604Z"
        fill="currentColor" />
</svg>