<svg preserveAspectRatio="none" width="100%" height="100%" overflow="visible"
    style="display: block;" viewBox="0 0 22 22" fill="none" xmlns="http://www.w3.org/2000/svg">
    <path
        d="M13.0367 9.0367H15.0367V15.0367H9.03674V13.0367H11.6225L6.29297 7.70713L7.70718 6.29292L13.0367 11.6225L13.0367 9.0367Z"
        fill="currentColor" />
    <path fill-rule="evenodd" clip-rule="evenodd"
        d="M0 4C0 1.79086 1.79086 0 4 0H18C20.2091 0 22 1.79086 22 4V18C22 20.2091 20.2091 22 18 22H4C1.79086 22 0 20.2091 0 18V4ZM4 2H18C19.1046 2 20 2.89543 20 4V18C20 19.1046 19.1046 20 18 20H4C2.89543 2 2 2.89543 2 4V18C2 19.1046 2.89543 20 4 20Z"
        fill="currentColor" />
</svg>