<svg preserveAspectRatio="none" width="100%" height="100%" overflow="visible"
    style="display: block;" viewBox="0 0 22 22" fill="none" xmlns="http://www.w3.org/2000/svg">
    <path
        d="M10.9481 13.8285L9.53386 15.2427L5.29122 11L9.53386 6.7574L10.9481 8.17161L9.11965 10H16.6568V12H9.11965L10.9481 13.8285Z"
        fill="currentColor" />
    <path fill-rule="evenodd" clip-rule="evenodd"
        d="M3.22183 18.7782C-1.07394 14.4824 -1.07394 7.51759 3.22183 3.22183C7.51759 -1.07394 14.4824 -1.07394 18.7782 3.22183C23.0739 7.51759 23.0739 14.4824 18.7782 18.7782C14.4824 23.0739 7.51759 23.0739 3.22183 18.7782ZM4.63604 17.364C1.12132 13.8492 1.12132 8.15076 4.63604 4.63604C8.15076 1.12132 13.8492 1.12132 17.364 4.63604C20.8787 8.15076 20.8787 13.8492 17.364 17.364C13.8492 20.8787 8.15076 20.8787 4.63604 17.364Z"
        fill="currentColor" />
</svg>