<svg preserveAspectRatio="none" width="100%" height="100%" overflow="visible"
    style="display: block;" viewBox="0 0 14 20" fill="none" xmlns="http://www.w3.org/2000/svg">
    <path id="vector" fill-rule="evenodd" clip-rule="evenodd"
        d="M14 7C14 9.37875 12.8135 11.4804 11 12.7453V20H8.41418L6.99996 18.5858L5.58575 20H3V12.7453C1.18652 11.4804 0 9.37875 0 7C0 3.13401 3.13401 0 7 0C10.866 0 14 3.13401 14 7ZM12 7C12 9.76142 9.76142 12 7 12C4.23858 12 2 9.76142 2 7C2 4.23858 4.23858 2 7 2C9.76142 2 12 4.23858 12 7ZM5 17.7573L6.99996 15.7573L9 17.7574V13.7101C8.36629 13.8987 7.69497 14 7 14C6.30503 14 5.63371 13.8987 5 13.7101V17.7573Z"
        fill="currentColor" />
</svg>