<svg preserveAspectRatio="none" width="100%" height="100%" overflow="visible"
    style="display: block;" viewBox="0 0 17.0743 22.8786" fill="none"
    xmlns="http://www.w3.org/2000/svg">
    <g id="vector">
        <path
            d="M8.47607 9.20405C8.24266 9.70458 7.64768 9.92114 7.14714 9.68773C6.6466 9.45433 6.43005 8.85935 6.66345 8.35881C6.89686 7.85827 7.49184 7.64171 7.99238 7.87512C8.49292 8.10852 8.70948 8.7035 8.47607 9.20405Z"
            fill="currentColor" />
        <path
            d="M5.45667 13.313C5.95721 13.5464 6.55219 13.3298 6.7856 12.8293C7.019 12.3287 6.80245 11.7338 6.30191 11.5003C5.80137 11.2669 5.20639 11.4835 4.97298 11.984C4.73958 12.4846 4.95613 13.0796 5.45667 13.313Z"
            fill="currentColor" />
        <path
            d="M10.4108 14.5197C10.1774 15.0203 9.58244 15.2368 9.0819 15.0034C8.58136 14.77 8.36481 14.1751 8.59821 13.6745C8.83162 13.174 9.4266 12.9574 9.92714 13.1908C10.4277 13.4242 10.6442 14.0192 10.4108 14.5197Z"
            fill="currentColor" />
        <path
            d="M10.7724 11.3782C11.2729 11.6116 11.8679 11.3951 12.1013 10.8945C12.3347 10.394 12.1182 9.799 11.6176 9.56559C11.1171 9.33219 10.5221 9.54874 10.2887 10.0493C10.0553 10.5498 10.2718 11.1448 10.7724 11.3782Z"
            fill="currentColor" />
        <path fill-rule="evenodd" clip-rule="evenodd"
            d="M13.6086 0.563585C10.6053 -0.836849 7.03544 0.462483 5.635 3.46572L0.563585 14.3414C-0.836849 17.3447 0.462483 20.9145 3.46572 22.315C6.46896 23.7154 10.0388 22.4161 11.4393 19.4128L16.5107 8.53714C17.9111 5.5339 16.6118 1.96402 13.6086 0.563585ZM10.4719 16.755L13.8528 9.50452L6.60238 6.12357L3.22144 13.374L10.4719 16.755ZM9.62666 18.5676L2.3762 15.1867C1.44258 17.1888 2.3088 19.5687 4.31096 20.5024C6.31312 21.436 8.69304 20.5698 9.62666 18.5676ZM12.7633 2.3762C14.7655 3.30982 15.6317 5.68975 14.6981 7.69191L7.44762 4.31096C8.38124 2.3088 10.7612 1.44258 12.7633 2.3762Z"
            fill="currentColor" />
    </g>
</svg>