<svg preserveAspectRatio="none" width="100%" height="100%" overflow="visible"
    style="display: block;" viewBox="0 0 21.5712 22.1888" fill="none"
    xmlns="http://www.w3.org/2000/svg">
    <path id="vector" fill-rule="evenodd" clip-rule="evenodd"
        d="M16.7368 14.6654C16.555 16.3131 15.7061 17.7598 14.466 18.7294C14.1176 19.5636 13.4947 20.2546 12.7103 20.6895C12.488 21.5518 11.7051 22.1888 10.7734 22.1888C9.84176 22.1888 9.05887 21.5518 8.83662 20.6895C8.05224 20.2546 7.42944 19.5637 7.08099 18.7297C5.84508 17.7635 4.99756 16.3234 4.81173 14.6827C3.72079 15.5105 2.16507 15.5063 1.07171 14.5888C-0.197517 13.5238 -0.363069 11.6315 0.701936 10.3623L4.79518 5.48417C5.05677 2.41195 7.63337 0 10.7733 0C13.9021 0 16.4716 2.39488 16.7486 5.45153L20.8692 10.3623C21.9342 11.6315 21.7687 13.5238 20.4994 14.5888C19.3985 15.5126 17.8288 15.5105 16.7368 14.6654ZM14.411 12L12.7328 10H8.8384L7.1602 12H14.411ZM16.7733 11.7039L17.805 12.9335C18.16 13.3565 18.7908 13.4117 19.2139 13.0567C19.6369 12.7017 19.6921 12.071 19.3371 11.6479L16.7733 8.59245V11.7039ZM14.7733 8V6C14.7733 3.79086 12.9825 2 10.7733 2C8.56418 2 6.77332 3.79086 6.77332 6V8H14.7733ZM3.76611 12.9335L4.77332 11.7331V8.62168L2.23403 11.6479C1.87902 12.071 1.93421 12.7017 2.35728 13.0567C2.78036 13.4117 3.41111 13.3565 3.76611 12.9335ZM10.7733 18C8.56418 18 6.77332 16.2091 6.77332 14H14.7733C14.7733 16.2091 12.9825 18 10.7733 18Z"
        fill="currentColor" />
</svg>