<svg preserveAspectRatio="none" width="100%" height="100%" overflow="visible"
    style="display: block;" viewBox="0 0 20 17.2426" fill="none" xmlns="http://www.w3.org/2000/svg">
    <path id="vector" fill-rule="evenodd" clip-rule="evenodd"
        d="M18.5468 0.292893C18.1563 -0.0976312 17.5231 -0.0976309 17.1326 0.292893L11.7687 5.65683H0V7.65683H0.00842428C0.225635 12.9876 4.61591 17.2426 10 17.2426C15.3841 17.2426 19.7744 12.9876 19.9916 7.65683H20V5.65683H14.5971L18.5468 1.70711C18.9374 1.31658 18.9374 0.683417 18.5468 0.292893ZM12.1762 7.65683C12.1806 7.65686 12.1851 7.65686 12.1896 7.65683H17.9895C17.7739 11.8826 14.2793 15.2426 10 15.2426C5.72066 15.2426 2.22609 11.8826 2.01054 7.65683H12.1762Z"
        fill="currentColor" />
</svg>