<svg preserveAspectRatio="none" width="100%" height="100%" overflow="visible"
    style="display: block;" viewBox="0 0 22 22" fill="none" xmlns="http://www.w3.org/2000/svg">
    <g id="vector">
        <path d="M7 17V19H15V17H7Z" fill="currentColor" />
        <path fill-rule="evenodd" clip-rule="evenodd"
            d="M12.988 2.2203C12.9959 2.14796 13 2.07446 13 2C13 0.895431 12.1046 0 11 0C9.89543 0 9 0.895431 9 2C9 2.07446 9.00407 2.14796 9.012 2.2203C4.99799 3.12533 2 6.71255 2 11C2 11.3883 2.02459 11.7709 2.0723 12.1462C0.869494 12.5369 0 13.6669 0 15V19C0 20.6569 1.34315 22 3 22H19C20.6569 22 22 20.6569 22 19V15C22 13.6669 21.1305 12.5369 19.9277 12.1462C19.9754 11.7709 20 11.3883 20 11C20 6.71255 17.002 3.12533 12.988 2.2203ZM11 4C7.13401 4 4 7.13401 4 11C4 11.3402 4.02412 11.674 4.07063 12H17.9294C17.9759 11.674 18 11.3402 18 11C18 7.13401 14.866 4 11 4ZM2 15C2 14.4477 2.44772 14 3 14H19C19.5523 14 20 14.4477 20 15V19C20 19.5523 19.5523 20 19 20H3C2.44772 20 2 19.5523 2 19V15Z"
            fill="currentColor" />
    </g>
</svg>