<svg preserveAspectRatio="none" width="100%" height="100%" overflow="visible"
    style="display: block;" viewBox="0 0 18 22" fill="none" xmlns="http://www.w3.org/2000/svg">
    <g id="vector">
        <path
            d="M9 10C10.1046 10 11 9.10457 11 8C11 6.89543 10.1046 6 9 6C7.89543 6 7 6.89543 7 8C7 9.10457 7.89543 10 9 10Z"
            fill="currentColor" />
        <path
            d="M8 12C8 13.1046 7.10457 14 6 14C4.89543 14 4 13.1046 4 12C4 10.8954 4.89543 10 6 10C7.10457 10 8 10.8954 8 12Z"
            fill="currentColor" />
        <path
            d="M12 14C13.1046 14 14 13.1046 14 12C14 10.8954 13.1046 10 12 10C10.8954 10 10 10.8954 10 12C10 13.1046 10.8954 14 12 14Z"
            fill="currentColor" />
        <path fill-rule="evenodd" clip-rule="evenodd"
            d="M0 3C0 1.34315 1.34315 0 3 0H15C16.6569 0 18 1.34315 18 3V19C18 20.6569 16.6569 22 15 22H3C1.34315 22 0 20.6569 0 19V3ZM3 2H15C15.5523 2 16 2.44772 16 3V19C16 19.5523 15.5523 20 15 20H3C2.44772 20 2 19.5523 2 19V3C2 2.44772 2.44772 2 3 2Z"
            fill="currentColor" />
    </g>
</svg>