<svg preserveAspectRatio="none" width="100%" height="100%" overflow="visible"
    style="display: block;" viewBox="0 0 18 22" fill="none" xmlns="http://www.w3.org/2000/svg">
    <g id="vector">
        <path
            d="M6.14648 11.2929C5.36544 10.5118 5.36544 9.24549 6.14648 8.46444C6.92753 7.68339 8.19386 7.68339 8.97491 8.46444L9.00003 8.48955L9.02509 8.46449C9.80614 7.68345 11.0725 7.68345 11.8535 8.46449C12.6346 9.24554 12.6346 10.5119 11.8535 11.2929L9.02509 14.1213L8.99997 14.0962L8.97491 14.1213L6.14648 11.2929Z"
            fill="currentColor" />
        <path fill-rule="evenodd" clip-rule="evenodd"
            d="M0 3C0 1.34315 1.34315 0 3 0H15C16.6569 0 18 1.34315 18 3V19C18 20.6569 16.6569 22 15 22H3C1.34315 22 0 20.6569 0 19V3ZM3 2H15C15.5523 2 16 2.44772 16 3V19C16 19.5523 15.5523 20 15 20H3C2.44772 20 2 19.5523 2 19V3C2 2.44772 2.44772 2 3 2Z"
            fill="currentColor" />
    </g>
</svg>