<svg preserveAspectRatio="none" width="100%" height="100%" overflow="visible"
    style="display: block;" viewBox="0 0 18 22" fill="none" xmlns="http://www.w3.org/2000/svg">
    <g id="vector">
        <path
            d="M6.14648 10.7071C5.36544 11.4882 5.36544 12.7545 6.14648 13.5356C6.92753 14.3166 8.19386 14.3166 8.97491 13.5356L9.00003 13.5104L9.02509 13.5355C9.80614 14.3166 11.0725 14.3166 11.8535 13.5355C12.6346 12.7545 12.6346 11.4881 11.8535 10.7071L9.02509 7.87865L8.99997 7.90377L8.97491 7.87871L6.14648 10.7071Z"
            fill="currentColor" />
        <path fill-rule="evenodd" clip-rule="evenodd"
            d="M0 19C0 20.6569 1.34315 22 3 22H15C16.6569 22 18 20.6569 18 19V3C18 1.34315 16.6569 0 15 0H3C1.34315 0 0 1.34315 0 3V19ZM3 20H15C15.5523 20 16 19.5523 16 19V3C16 2.44772 15.5523 2 15 2H3C2.44772 2 2 2.44772 2 3V19C2 19.5523 2.44772 20 3 20Z"
            fill="currentColor" />
    </g>
</svg>