<svg preserveAspectRatio="none" width="100%" height="100%" overflow="visible"
    style="display: block;" viewBox="0 0 22 22" fill="none" xmlns="http://www.w3.org/2000/svg">
    <path
        d="M9.24264 15.3137L5 11.071L6.41421 9.65683L9.24264 12.4853L14.8995 6.8284L16.3137 8.24262L9.24264 15.3137Z"
        fill="currentColor" />
    <path fill-rule="evenodd" clip-rule="evenodd"
        d="M0 4C0 1.79086 1.79086 0 4 0H18C20.2091 0 22 1.79086 22 4V18C22 20.2091 20.2091 22 18 22H4C1.79086 22 0 20.2091 0 18V4ZM4 2H18C19.1046 2 20 2.89543 20 4V18C20 19.1046 19.1046 20 18 20H4C2.89543 20 2 19.1046 2 18V4C2 2.89543 2.89543 2 4 2Z"
        fill="currentColor" />
</svg>