<svg preserveAspectRatio="none" width="100%" height="100%" overflow="visible"
    style="display: block;" viewBox="0 0 22 22" fill="none" xmlns="http://www.w3.org/2000/svg">
    <g id="vector">
        <path
            d="M11.7071 8.1716L10.2929 6.75739L6.05024 11L10.2929 15.2426L11.7071 13.8284L8.87869 11L11.7071 8.1716Z"
            fill="currentColor" />
        <path
            d="M14.5355 6.75739L15.9497 8.1716L13.1213 11L15.9497 13.8284L14.5355 15.2426L10.2929 11L14.5355 6.75739Z"
            fill="currentColor" />
        <path fill-rule="evenodd" clip-rule="evenodd"
            d="M0 4C0 1.79086 1.79086 0 4 0H18C20.2091 0 22 1.79086 22 4V18C22 20.2091 20.2091 22 18 22H4C1.79086 22 0 20.2091 0 18V4ZM4 2H18C19.1046 2 20 2.89543 20 4V18C20 19.1046 19.1046 20 18 20H4C2.89543 20 2 19.1046 2 18V4C2 2.89543 2.89543 2 4 2Z"
            fill="currentColor" />
    </g>
</svg>