<svg preserveAspectRatio="none" width="100%" height="100%" overflow="visible"
    style="display: block;" viewBox="0 0 22 22" fill="none" xmlns="http://www.w3.org/2000/svg">
    <g id="vector">
        <path
            d="M7.46448 6.75739L6.05026 8.1716L8.87869 11L6.05029 13.8284L7.46451 15.2426L11.7071 11L7.46448 6.75739Z"
            fill="currentColor" />
        <path
            d="M10.2929 8.1716L11.7071 6.75739L15.9498 11L11.7071 15.2426L10.2929 13.8284L13.1213 11L10.2929 8.1716Z"
            fill="currentColor" />
        <path fill-rule="evenodd" clip-rule="evenodd"
            d="M22 4C22 1.79086 20.2091 0 18 0H4C1.79086 0 0 1.79086 0 4V18C0 20.2091 1.79086 22 4 22H18C20.2091 22 22 20.2091 22 18V4ZM18 2H4C2.89543 2 2 2.89543 2 4V18C2 19.1046 2.89543 20 4 20H18C19.1046 20 20 19.1046 20 18V4C20 2.89543 19.1046 2 18 2Z"
            fill="currentColor" />
    </g>
</svg>