<svg preserveAspectRatio="none" width="100%" height="100%" overflow="visible"
    style="display: block;" viewBox="0 0 22 22" fill="none" xmlns="http://www.w3.org/2000/svg">
    <g id="vector">
        <path
            d="M6.75732 7.46448L8.17154 6.05026L11 8.87869L13.8284 6.05029L15.2426 7.46451L11 11.7071L6.75732 7.46448Z"
            fill="currentColor" />
        <path
            d="M8.17154 10.2929L6.75732 11.7071L10.9999 15.9498L15.2426 11.7071L13.8284 10.2929L11 13.1213L8.17154 10.2929Z"
            fill="currentColor" />
        <path fill-rule="evenodd" clip-rule="evenodd"
            d="M0 4C0 1.79086 1.79086 0 4 0H18C20.2091 0 22 1.79086 22 4V18C22 20.2091 20.2091 22 18 22H4C1.79086 22 0 20.2091 0 18V4ZM4 2H18C19.1046 2 20 2.89543 20 4V18C20 19.1046 19.1046 20 18 20H4C2.89543 20 2 19.1046 2 18V4C2 2.89543 2.89543 2 4 2Z"
            fill="currentColor" />
    </g>
</svg>