<svg preserveAspectRatio="none" width="100%" height="100%" overflow="visible"
    style="display: block;" viewBox="0 0 22 22" fill="none" xmlns="http://www.w3.org/2000/svg">
    <g id="vector">
        <path
            d="M11.7071 8.1716L10.2929 6.75739L6.05024 11L10.2929 15.2426L11.7071 13.8284L8.87869 11L11.7071 8.1716Z"
            fill="currentColor" />
        <path
            d="M14.5355 6.75739L15.9497 8.1716L13.1213 11L15.9497 13.8284L14.5355 15.2426L10.2929 11L14.5355 6.75739Z"
            fill="currentColor" />
        <path fill-rule="evenodd" clip-rule="evenodd"
            d="M22 11C22 17.0751 17.0751 22 11 22C4.92487 22 0 17.0751 0 11C0 4.92487 4.92487 0 11 0C17.0751 0 22 4.92487 22 11ZM20 11C20 15.9706 15.9706 20 11 20C6.02944 20 2 15.9706 2 11C2 6.02944 6.02944 2 11 2C15.9706 2 20 6.02944 20 11Z"
            fill="currentColor" />
    </g>
</svg>