<svg preserveAspectRatio="none" width="100%" height="100%" overflow="visible"
    style="display: block;" viewBox="0 0 19.2005 19.1999" fill="none"
    xmlns="http://www.w3.org/2000/svg">
    <path id="Vector" fill-rule="evenodd" clip-rule="evenodd"
        d="M17.3772 6.33823C17.7382 6.69923 18.0702 7.03123 18.3252 7.33223C18.6002 7.65523 18.8712 8.03823 19.0302 8.52623C19.2572 9.2239 19.2572 9.97556 19.0302 10.6732C18.8712 11.1622 18.6002 11.5452 18.3252 11.8682C18.0702 12.1682 17.7382 12.5012 17.3772 12.8622L12.8622 17.3772C12.5431 17.7058 12.2115 18.022 11.8682 18.3252C11.5452 18.6002 11.1612 18.8712 10.6732 19.0302C9.97545 19.2565 9.22401 19.2565 8.52623 19.0302C8.03823 18.8712 7.65623 18.6002 7.33123 18.3252C7.03123 18.0702 6.69923 17.7382 6.33823 17.3772L1.82323 12.8622C1.4947 12.5431 1.17847 12.2115 0.875228 11.8682C0.600228 11.5452 0.329228 11.1622 0.170228 10.6732C-0.0567425 9.97556 -0.0567425 9.2239 0.170228 8.52623C0.329228 8.03823 0.600228 7.65623 0.875228 7.33223C1.12923 7.03223 1.46123 6.69923 1.82323 6.33823L6.33823 1.82323C6.69923 1.46223 7.03123 1.13023 7.33123 0.875228C7.65523 0.600228 8.03823 0.329228 8.52623 0.170228C9.2239 -0.0567425 9.97556 -0.0567425 10.6732 0.170228C11.1622 0.329228 11.5452 0.600228 11.8682 0.875228C12.1682 1.13023 12.5002 1.46123 12.8622 1.82323L17.3772 6.33823ZM15.0342 6.10123L16.2872 7.35423C17.0742 8.14023 17.4672 8.53423 17.6142 8.98723C17.7442 9.38523 17.7442 9.81523 17.6142 10.2132C17.4672 10.6672 17.0742 11.0602 16.2872 11.8462L15.0342 13.0992H13.5212C13.4074 13.0978 13.2951 13.0721 13.192 13.0238C13.0889 12.9755 12.9972 12.9058 12.9232 12.8192L10.9772 10.6792C10.8029 10.4872 10.5903 10.3338 10.3532 10.2288C10.116 10.1238 9.85957 10.0696 9.60023 10.0696C9.34089 10.0696 9.08441 10.1238 8.84727 10.2288C8.61013 10.3338 8.39757 10.4872 8.22323 10.6792L6.27623 12.8192C6.20233 12.9056 6.11086 12.9753 6.00792 13.0236C5.90497 13.0719 5.79292 13.0977 5.67923 13.0992H4.16523L2.91223 11.8462C2.12623 11.0602 1.73323 10.6662 1.58623 10.2132C1.45788 9.81464 1.45788 9.38582 1.58623 8.98723C1.73323 8.53323 2.12623 8.14023 2.91223 7.35423L4.16523 6.10123H5.68023C5.88923 6.10123 6.10623 6.19123 6.27723 6.38123L8.22423 8.52123C8.39857 8.71322 8.61113 8.86664 8.84827 8.97162C9.08541 9.07661 9.34189 9.13084 9.60123 9.13084C9.86057 9.13084 10.117 9.07661 10.3542 8.97162C10.5913 8.86664 10.8039 8.71322 10.9782 8.52123L12.9242 6.38123C12.9982 6.29469 13.0899 6.22494 13.193 6.17665C13.2961 6.12837 13.4084 6.10265 13.5222 6.10123H15.0342ZM13.5452 4.61223H13.5212C12.8692 4.61223 12.2592 4.89823 11.8212 5.37923L9.87623 7.52023C9.84153 7.55877 9.79912 7.58959 9.75175 7.61069C9.70437 7.63179 9.65309 7.64269 9.60123 7.64269C9.54937 7.64269 9.49809 7.63179 9.45071 7.61069C9.40333 7.58959 9.36092 7.55877 9.32623 7.52023L7.37823 5.38023C7.16423 5.14058 6.90239 4.94842 6.60958 4.81614C6.31678 4.68386 5.99952 4.6144 5.67823 4.61223H5.65423L7.35423 2.91223C8.14023 2.12623 8.53423 1.73323 8.98623 1.58623C9.38623 1.45623 9.81523 1.45623 10.2132 1.58623C10.6672 1.73323 11.0602 2.12623 11.8462 2.91323L13.5452 4.61223ZM13.5212 14.5882H13.5452L11.8452 16.2882C11.0602 17.0742 10.6672 17.4672 10.2132 17.6142C9.81523 17.7442 9.38523 17.7442 8.98623 17.6142C8.53323 17.4672 8.14023 17.0742 7.35423 16.2872L5.65423 14.5872H5.67923C6.33123 14.5872 6.94023 14.3022 7.37823 13.8212L9.32523 11.6802C9.35992 11.6417 9.40233 11.6109 9.44971 11.5898C9.49709 11.5687 9.54837 11.5578 9.60023 11.5578C9.65209 11.5578 9.70337 11.5687 9.75074 11.5898C9.79812 11.6109 9.84053 11.6417 9.87523 11.6802L11.8222 13.8202C12.0362 14.0599 12.2981 14.252 12.5909 14.3843C12.8837 14.5166 13.2009 14.5861 13.5222 14.5882"
        fill="currentColor" />
</svg>