<svg preserveAspectRatio="none" width="100%" height="100%" overflow="visible"
    style="display: block;" viewBox="0 0 22 22" fill="none" xmlns="http://www.w3.org/2000/svg">
    <g id="vector">
        <path
            d="M15.6743 8.1716L14.26 6.75739L10.0174 11L14.26 15.2426L15.6742 13.8284L12.8458 11L15.6743 8.1716Z"
            fill="currentColor" />
        <path d="M8.96265 7.00007V15.0001H6.96265V7.00007H8.96265Z" fill="currentColor" />
        <path fill-rule="evenodd" clip-rule="evenodd"
            d="M0 4C0 1.79086 1.79086 0 4 0H18C20.2091 0 22 1.79086 22 4V18C22 20.2091 20.2091 22 18 22H4C1.79086 22 0 20.2091 0 18V4ZM4 2H18C19.1046 2 20 2.89543 20 4V18C20 19.1046 19.1046 20 18 20H4C2.89543 20 2 19.1046 2 18V4C2 2.89543 2.89543 2 4 2Z"
            fill="currentColor" />
    </g>
</svg>